<svg width="205" height="82" viewBox="0 0 205 82" fill="none" xmlns="http://www.w3.org/2000/svg">
<path d="M198.668 28.7365H190.292C190.292 28.7365 187.597 24.1822 189.823 20.6065C189.823 20.6065 192.518 16.7308 196.793 19.1318C196.793 19.1318 200.66 20.5726 198.668 28.7365ZM133.823 28.7966H115.196L118.652 23.0337C123.514 17.271 129.664 18.5316 129.664 18.5316C136.049 20.9927 133.823 28.7966 133.823 28.7966ZM200.426 14.4497C200.426 14.4497 191.053 9.28712 184.727 17.8112C184.727 17.8112 181.446 22.9338 184.18 28.7766C184.18 28.7766 177.775 29.737 178.011 22.9338L178.004 17.0108H172.386V24.9347C172.386 24.9347 172.231 29.0167 168.794 28.8566C168.794 28.8566 164.732 29.0967 164.732 25.655V17.1709L158.952 17.0108V25.4949C158.952 25.4949 158.797 29.0167 155.594 28.7766C155.594 28.7766 151.533 29.3368 151.376 25.8151V17.0108L145.597 16.9308V24.6946C145.597 24.6946 146.144 29.9771 139.661 28.7766C139.661 28.7766 142.083 16.8507 132.632 13.4891C132.632 13.4891 122.947 9.56718 115.371 21.7331V7.08606H109.436V28.6165L105.062 28.6965V33.9094H142.16C142.16 33.9094 146.827 34.019 148.936 31.6779C148.936 31.6779 151.279 34.6419 157.254 33.9103C157.254 33.9103 160.007 33.899 162.585 31.798C162.585 31.798 165.689 34.6941 170.903 34.0265C170.903 34.0265 174.3 33.6589 176.234 31.1377C176.234 31.1377 177.756 34.1737 182.735 34.1264L202.949 33.9094C202.949 33.9094 208.627 21.0529 200.426 14.4497Z" fill="white"/>
<path d="M97.6825 7.08745H103.423V13.0703C103.423 13.0703 104.009 21.2342 94.1679 21.2944H59.373C59.373 21.2944 52.2852 21.1142 51.9923 24.716C51.9923 24.716 51.6994 27.0571 55.9169 28.2576C55.9169 28.2576 61.7747 28.7379 63.122 28.6779L82.6281 28.6831L82.6868 34.1405H59.0215C59.0215 34.1405 46.6618 34.6207 46.486 25.6764C46.486 25.6764 45.0216 16.672 57.0886 16.0118H92.8206C92.8206 16.0118 97.9754 16.8521 97.8583 10.3089L97.6825 7.08745Z" fill="white"/>
<path d="M92.7614 28.4225C92.7614 30.1686 91.3801 31.584 89.6764 31.584C87.9725 31.584 86.5913 30.1686 86.5913 28.4225C86.5913 26.6765 87.9725 25.261 89.6764 25.261C91.3801 25.261 92.7614 26.6765 92.7614 28.4225Z" fill="white"/>
<path d="M100.377 28.4225C100.377 30.1686 98.9962 31.584 97.2923 31.584C95.5884 31.584 94.2073 30.1686 94.2073 28.4225C94.2073 26.6765 95.5884 25.261 97.2923 25.261C98.9962 25.261 100.377 26.6765 100.377 28.4225Z" fill="white"/>
<path d="M193.581 3.16126C193.581 4.90737 192.199 6.32275 190.495 6.32275C188.791 6.32275 187.41 4.90737 187.41 3.16126C187.41 1.41515 188.791 -0.000238895 190.495 -0.000238895C192.199 -0.000238895 193.581 1.41515 193.581 3.16126Z" fill="white"/>
<path d="M201.195 3.16126C201.195 4.90737 199.813 6.32275 198.109 6.32275C196.406 6.32275 195.025 4.90737 195.025 3.16126C195.025 1.41515 196.406 -0.000238895 198.109 -0.000238895C199.813 -0.000238895 201.195 1.41515 201.195 3.16126Z" fill="white"/>
<path d="M96.7452 35.0289C96.7452 36.775 95.3639 38.1904 93.6601 38.1904C91.9562 38.1904 90.575 36.775 90.575 35.0289C90.575 33.283 91.9562 31.8674 93.6601 31.8674C95.3639 31.8674 96.7452 33.283 96.7452 35.0289Z" fill="white"/>
<path d="M40.1591 22.6134L35.5119 7.56616C35.5119 7.56616 34.5356 3.48418 30.2399 5.24511L6.18427 13.3289L4.89555 13.7088C4.89555 13.7088 1.08803 15.0497 2.43533 18.3514L6.88719 31.978L20.9457 75.679L21.4143 77.1196C21.4143 77.1196 22.4687 80.5413 26.2177 79.1006L40.7448 74.2383C40.7448 74.2383 42.2385 73.578 42.6779 74.6285C42.6779 74.6285 43.3514 75.769 41.5943 76.3092L26.9499 81.2618C26.9499 81.2618 21.5607 83.7529 19.5105 78.4704L0.297239 18.9817C0.297239 18.9817 -1.60653 13.519 4.22196 11.478L29.0001 3.1941C29.0001 3.1941 35.0629 0.34272 37.2595 5.7753L42.2678 21.2628L42.6485 22.6434C42.6485 22.6434 43.2637 23.9641 41.9456 24.3543C41.9456 24.3543 41.027 24.6484 40.5105 23.3638L40.1591 22.6134Z" fill="white"/>
<path d="M36.6053 65.573C35.6793 65.573 34.926 66.345 34.926 67.2938C34.926 68.2427 35.6793 69.0148 36.6053 69.0148C37.5312 69.0148 38.2845 68.2427 38.2845 67.2938C38.2845 66.345 37.5312 65.573 36.6053 65.573ZM36.6053 71.5522C34.314 71.5522 32.45 69.6418 32.45 67.2938C32.45 64.9458 34.314 63.0355 36.6053 63.0355C38.8966 63.0355 40.7606 64.9458 40.7606 67.2938C40.7606 69.6418 38.8966 71.5522 36.6053 71.5522Z" fill="white"/>
<path d="M47.4036 37.7162H52.8893L52.992 55.1543L64.5267 44.9457L70.853 45.0257L61.5611 54.3297L71.9465 71.9077H65.5952L57.3616 57.6463L53.1092 61.6521V71.9077H47.4036V37.7162Z" fill="white"/>
<path d="M88.9867 63.4886C89.1162 65.2218 89.6673 66.4822 90.6394 67.2698C91.6116 68.0576 93.0437 68.4516 94.9363 68.4516C95.8434 68.4516 96.6085 68.3531 97.2305 68.1562C97.8528 67.9591 98.3582 67.697 98.7472 67.3684C99.1361 67.0403 99.4143 66.6531 99.5833 66.2065C99.7515 65.7603 99.8359 65.2746 99.8359 64.7492C99.8359 64.0142 99.5638 63.3249 99.0194 62.6812C98.475 62.0381 97.4767 61.5722 96.0251 61.2829L92.4087 60.6133C90.9828 60.3512 89.7256 60.0097 88.6367 59.5892C87.548 59.1695 86.6342 58.6242 85.8953 57.9547C85.1565 57.2851 84.5926 56.4647 84.2037 55.4929C83.8149 54.5218 83.6205 53.366 83.6205 52.0267C83.6205 50.6875 83.8859 49.506 84.4176 48.4818C84.9486 47.4577 85.6875 46.6048 86.6342 45.9218C87.5801 45.2391 88.7145 44.7203 90.0366 44.366C91.3588 44.0114 92.8103 43.8341 94.3919 43.8341C96.414 43.8341 98.0989 44.0705 99.4471 44.5431C100.795 45.0158 101.884 45.6398 102.714 46.414C103.543 47.189 104.158 48.088 104.561 49.1121C104.962 50.1362 105.228 51.1997 105.358 52.3025L99.8749 53.0114C99.5894 51.4625 99.0388 50.3466 98.2221 49.6636C97.4056 48.9809 96.1674 48.6395 94.5086 48.6395C93.523 48.6395 92.7131 48.725 92.0782 48.8955C91.4427 49.0666 90.9311 49.2894 90.5421 49.5651C90.1533 49.8407 89.8811 50.1627 89.7256 50.53C89.5701 50.898 89.4922 51.2784 89.4922 51.6722C89.4922 52.7229 89.7838 53.5105 90.3672 54.0356C90.9505 54.5612 91.9421 54.968 93.342 55.2565L97.1528 56.0049C100.16 56.6094 102.364 57.5873 103.764 58.9393C105.163 60.2921 105.863 62.2418 105.863 64.7884C105.863 66.023 105.636 67.1585 105.183 68.1955C104.729 69.2332 104.055 70.1391 103.161 70.9132C102.266 71.688 101.145 72.2918 99.7971 72.7251C98.4487 73.1583 96.8673 73.375 95.0529 73.375C91.2676 73.375 88.3706 72.5546 86.3619 70.9132C84.3526 69.2726 83.2705 66.7972 83.115 63.4886H88.9867Z" fill="white"/>
<path d="M111.076 49.8684L107.089 49.8084V44.946L111.467 44.866L111.428 37.7165H117.129L117.168 44.866L123.66 44.9761L123.63 49.7083L117.451 49.6283L117.305 63.7351C117.363 65.596 118.172 66.1228 118.721 66.6201C119.269 67.1181 119.978 67.3668 120.849 67.3668C121.3 67.3668 121.759 67.3411 122.227 67.2896C122.694 67.2381 123.154 67.1439 123.606 67.0063L124.5 71.4485C123.565 71.7575 122.654 71.9716 121.768 72.0923C120.881 72.2122 120.034 72.2725 119.229 72.2725C116.455 72.2725 114.4 71.5692 113.062 70.161C111.724 68.7537 111.055 66.3847 111.055 63.0541L111.076 49.8684Z" fill="white"/>
<path d="M133.032 58.5723C133.032 60.3256 133.175 61.7263 133.463 62.7744C133.75 63.8233 134.216 64.674 134.859 65.3261C135.535 65.9454 136.22 66.3493 136.914 66.5381C137.607 66.7276 138.309 66.8215 139.02 66.8215C139.798 66.8215 140.542 66.6674 141.253 66.3574C141.964 66.0481 142.581 65.5583 143.106 64.8884C143.629 64.2186 144.044 63.3503 144.348 62.2844C144.654 61.2196 144.805 59.9305 144.805 58.4173C144.805 56.8366 144.661 55.513 144.374 54.4473C144.086 53.3822 143.69 52.514 143.181 51.8433C142.674 51.1735 142.072 50.6925 141.38 50.4C140.687 50.1078 139.95 49.9616 139.173 49.9616C138.293 49.9616 137.531 50.0821 136.889 50.3229C136.246 50.5639 135.62 50.9415 135.011 51.457C134.334 52.11 133.835 52.9349 133.514 53.9316C133.192 54.9292 133.032 56.2006 133.032 57.7474V58.5723ZM126.853 44.862L132.672 44.9821V48.7439C134.702 45.8316 137.683 44.1017 141.202 44.1017C144.889 44.1017 147.647 45.3699 149.475 47.9055C151.301 50.4418 152.214 53.9196 152.214 58.3402C152.214 60.4653 151.951 62.4009 151.428 64.1486C150.903 65.8964 150.141 67.3959 149.144 68.6464C148.146 69.8978 146.936 70.8655 145.516 71.5506C144.095 72.2357 142.487 72.5787 140.695 72.5787C139.375 72.5787 138.064 72.3409 136.762 71.8655C135.459 71.3901 134.056 70.5401 132.906 69.1137L132.945 82H127.009L126.853 44.862Z" fill="white"/>
<path d="M170.874 59.229L167.654 59.439C166.17 59.5078 164.872 59.9212 163.962 60.1595C163.053 60.3983 162.329 60.9668 161.841 61.3249C161.352 61.683 160.771 62.3882 160.603 62.8656C160.435 63.3436 160.351 63.8719 160.351 64.4515C160.351 65.3388 160.75 66.1611 161.356 66.6726C161.962 67.1842 162.943 67.5129 164.022 67.5129C165.84 67.5129 167.563 67.1053 168.708 66.2524C169.347 65.775 169.865 64.9792 170.268 64.2453C170.673 63.5123 170.874 62.6003 170.874 61.5083V59.229ZM171.591 68.5932C170.545 69.7874 168.891 70.9052 167.595 71.655C166.299 72.4047 164.323 72.6724 162.271 72.6724C161.092 72.6724 159.972 72.5188 158.911 72.2118C157.851 71.9049 156.924 71.4277 156.133 70.7794C155.342 70.1318 154.71 69.3045 154.239 68.298C153.768 67.2925 153.532 66.0902 153.532 64.6912C153.532 62.8497 153.936 61.3492 154.745 60.1893C155.553 59.0301 156.614 58.1261 157.926 57.4778C159.239 56.8303 160.63 56.2008 162.264 55.9275C163.896 55.6548 165.588 55.4559 167.272 55.3871L171.323 55.0666V53.7363C171.323 52.0993 170.877 50.9737 169.986 50.3598C169.093 49.7459 167.423 49.8039 166.21 49.8039C163.414 49.8039 161.351 50.5371 160.946 52.6858L155.264 51.8455C155.735 49.0492 156.512 47.2144 158.465 45.9691C160.418 44.7244 163.044 44.1017 166.344 44.1017C168.365 44.1017 170.082 44.3495 171.497 44.8435C172.91 45.3383 174.047 46.0458 174.906 46.9667C175.764 47.8876 176.505 49.3865 176.892 50.6992C177.279 52.0125 177.474 53.4873 177.474 55.1244L177.113 71.8004H171.666L171.591 68.5932Z" fill="white"/>
<path d="M180.722 75.7099C181.7 75.9828 182.694 76.1197 183.707 76.1197C184.65 76.1197 185.409 75.8892 185.982 75.4282C186.555 74.967 187.044 74.1553 187.449 72.9945L188.259 70.7402L177.282 45.1744H184.102L191.085 64.4538L197.615 44.9401H203.98L194.479 72.6871C193.873 74.2241 193.299 75.5641 192.76 76.7089C192.221 77.8529 191.605 78.8096 190.915 79.5781C190.222 80.3465 189.397 80.9181 188.435 81.2944C187.475 81.6699 186.287 81.8579 184.869 81.8579C183.992 81.8579 183.124 81.7979 182.264 81.6787C181.405 81.5586 180.503 81.3457 179.559 81.0383L180.722 75.7099Z" fill="white"/>
<path d="M80.2585 72.0322H74.2566V53.5805H80.2585V72.0322Z" fill="white"/>
<path d="M80.2585 50.8521H74.2566V45.0773H80.2585V50.8521Z" fill="white"/>
</svg>
